<svg fill="none" height="100%" width="100%" viewBox="0 0 120 170" xmlns:xlink="http://www.w3.org/1999/xlink" xmlns="http://www.w3.org/2000/svg"><defs><linearGradient id="i0" gradientUnits="userSpaceOnUse" spreadMethod="pad" x2="-28" y2="-17" x1="26.25" y1="15.75"><stop offset="0%" stop-color="#056d31" /><stop offset="54.1%" stop-color="#188035" /><stop offset="100%" stop-color="#2c9238" /></linearGradient><linearGradient id="i1" gradientUnits="userSpaceOnUse" spreadMethod="pad" x2="2.5" y2="-24.75" x1="-5.5" y1="56.75"><stop offset="0%" stop-color="#ff7500" /><stop offset="54.1%" stop-color="#ffaa00" /><stop offset="100%" stop-color="#ffdf00" /></linearGradient><linearGradient id="i2" gradientUnits="userSpaceOnUse" spreadMethod="pad" x2="16.25" y2="-33.125" x1="-10.5" y1="31.812"><stop offset="0%" stop-color="#ffc100" /><stop offset="54.1%" stop-color="#ffd000" /><stop offset="100%" stop-color="#ffdf00" /></linearGradient><filter filterUnits="userSpaceOnUse" height="200%" width="200%" y="-50%" x="-50%" id="f3"><feDropShadow result="dropShadow0" flood-opacity="0.253" flood-color="#000000" stdDeviation="1.733" dy="0" dx="0" in="SourceGraphic" /></filter><filter filterUnits="userSpaceOnUse" height="200%" width="200%" y="-50%" x="-50%" id="f4"><feDropShadow result="dropShadow0" flood-opacity="0.253" flood-color="#000000" stdDeviation="1.733" dy="0" dx="0" in="SourceGraphic" /></filter></defs><g id="i5"><g transform="translate(66.201,44.622)"><g transform="rotate(-10)"><animateTransform repeatCount="indefinite" type="rotate" attributeName="transform" dur="2s" begin="0s" calcMode="spline" values="-10; -10; 0; 0" keyTimes="0; 0.166666; 0.375; 1" keySplines="0 0 1 1; 0.236 0 0.09 1; 0 0 1 1" fill="freeze" /><g transform="scale(1,1) translate(-55.701,-33.122)"><g id="i5" transform="matrix(1,0,0,1,27.851,16.561)"><path fill="url(#i0)" d="M-27.85,-16.561C-27.85,1.731,-13.022,16.561,5.271,16.561C5.271,16.561,27.85,16.561,27.85,16.561C27.85,16.561,27.85,16.56,27.85,16.56C27.85,-1.732,13.022,-16.561,-5.271,-16.561C-5.271,-16.561,-27.85,-16.561,-27.85,-16.561Z" /></g></g></g></g></g><g id="i6"><g transform="translate(64.25,33.5)"><g transform="scale(0,0)"><animateTransform repeatCount="indefinite" type="scale" attributeName="transform" dur="2s" begin="0s" calcMode="spline" values="0 0; 1 1; 1 1; 0 0; 0 0" keyTimes="0; 0.166667; 0.604167; 0.770833; 1" keySplines="0.696 0 0.299 1; 0 0 1 1; 0.701 0 0.304 1; 0 0 1 1" fill="freeze" /><g transform="translate(-53.75,-22)"><g id="i6" transform="matrix(1,0,0,1,53.141,85.938)"><path fill="url(#i1)" d="M-45.296,-16.908C-46.724,10.351,-35.381,61.315,-8.123,62.743C19.137,64.172,43.867,15.099,45.295,-12.16C46.724,-39.42,25.784,-62.676,-1.475,-64.104C-2.338,-64.149,-3.192,-64.171,-4.031,-64.171C-29.681,-64.172,-43.912,-43.304,-45.296,-16.908Z" /></g></g></g></g></g><g filter="url(#f3)" transform="matrix(1,0,0,1,10.5,11.5)" id="i7"><g id="i7" transform="matrix(1,0,0,1,53.594,68.077)"><path fill="url(#i2)" d="M-32.988,-12.313C-34.028,7.539,-25.767,44.655,-5.915,45.695C13.938,46.736,31.948,10.997,32.988,-8.856C34.028,-28.708,18.778,-45.644,-1.074,-46.685C-1.704,-46.718,-2.326,-46.735,-2.937,-46.735C-21.617,-46.736,-31.981,-31.536,-32.988,-12.313Z" /></g></g><g filter="url(#f4)" transform="matrix(1,0,0,1,10.5,11.5)" id="i8"><g id="i8" transform="matrix(1,0,0,1,54.386,48.51)"><path fill="#ffe100" d="M-19.115,-7.136C-19.718,4.368,-14.932,25.876,-3.428,26.48C8.076,27.082,18.512,6.372,19.115,-5.131C19.718,-16.635,10.881,-26.449,-0.622,-27.052C-0.986,-27.072,-1.347,-27.081,-1.701,-27.081C-12.526,-27.082,-18.531,-18.274,-19.115,-7.136Z" /></g></g></svg>